<svg width="23" height="22" viewBox="0 0 23 22" fill="none" xmlns="http://www.w3.org/2000/svg">
<path d="M11.5007 18.3327H5.26732C4.24055 18.3327 3.72717 18.3327 3.335 18.1329C2.99004 17.9571 2.70957 17.6766 2.53381 17.3317C2.33398 16.9395 2.33398 16.4261 2.33398 15.3993V6.59935C2.33398 5.57259 2.33398 5.0592 2.53381 4.66703C2.70957 4.32207 2.99004 4.0416 3.335 3.86584C3.72717 3.66602 4.24055 3.66602 5.26732 3.66602H5.63398C7.68751 3.66602 8.71427 3.66602 9.49862 4.06566C10.1885 4.41719 10.7495 4.97812 11.101 5.66805C11.5007 6.45239 11.5007 7.47916 11.5007 9.53268M11.5007 18.3327V9.53268M11.5007 18.3327H17.734C18.7607 18.3327 19.2741 18.3327 19.6663 18.1329C20.0113 17.9571 20.2917 17.6766 20.4675 17.3317C20.6673 16.9395 20.6673 16.4261 20.6673 15.3993V6.59935C20.6673 5.57259 20.6673 5.0592 20.4675 4.66703C20.2917 4.32207 20.0113 4.0416 19.6663 3.86584C19.2741 3.66602 18.7607 3.66602 17.734 3.66602H17.3673C15.3138 3.66602 14.287 3.66602 13.5027 4.06566C12.8128 4.41719 12.2518 4.97812 11.9003 5.66805C11.5007 6.45239 11.5007 7.47916 11.5007 9.53268" stroke="#344054" stroke-width="1.5" stroke-linecap="round" stroke-linejoin="round"/>
</svg>
