<svg width="23" height="22" viewBox="0 0 23 22" fill="none" xmlns="http://www.w3.org/2000/svg">
<path d="M7.83398 19.25V6.41667C7.83398 5.56419 7.83398 5.13796 7.92769 4.78825C8.18197 3.83924 8.92323 3.09799 9.87223 2.8437C10.2219 2.75 10.6482 2.75 11.5007 2.75C12.3531 2.75 12.7794 2.75 13.1291 2.8437C14.0781 3.09799 14.8193 3.83924 15.0736 4.78825C15.1673 5.13796 15.1673 5.56419 15.1673 6.41667V19.25M5.26732 19.25H17.734C18.7607 19.25 19.2741 19.25 19.6663 19.0502C20.0113 18.8744 20.2917 18.5939 20.4675 18.249C20.6673 17.8568 20.6673 17.3434 20.6673 16.3167V9.35C20.6673 8.32324 20.6673 7.80986 20.4675 7.41768C20.2917 7.07272 20.0113 6.79226 19.6663 6.61649C19.2741 6.41667 18.7607 6.41667 17.734 6.41667H5.26732C4.24055 6.41667 3.72717 6.41667 3.335 6.61649C2.99004 6.79226 2.70957 7.07272 2.53381 7.41768C2.33398 7.80986 2.33398 8.32324 2.33398 9.35V16.3167C2.33398 17.3434 2.33398 17.8568 2.53381 18.249C2.70957 18.5939 2.99004 18.8744 3.335 19.0502C3.72717 19.25 4.24055 19.25 5.26732 19.25Z" stroke="#5925DC" stroke-width="1.5" stroke-linecap="round" stroke-linejoin="round"/>
</svg>
