<svg width="23" height="22" viewBox="0 0 23 22" fill="none" xmlns="http://www.w3.org/2000/svg">
<path d="M7.83333 15.5835H15.1667M10.5996 2.53385L4.38244 7.36938C3.96685 7.69262 3.75906 7.85423 3.60936 8.05663C3.47675 8.23592 3.37797 8.4379 3.31786 8.65265C3.25 8.89508 3.25 9.15832 3.25 9.68481V16.3168C3.25 17.3436 3.25 17.857 3.44982 18.2492C3.62559 18.5941 3.90605 18.8746 4.25102 19.0503C4.64319 19.2502 5.15657 19.2502 6.18333 19.2502H16.8167C17.8434 19.2502 18.3568 19.2502 18.749 19.0503C19.0939 18.8746 19.3744 18.5941 19.5502 18.2492C19.75 17.857 19.75 17.3436 19.75 16.3168V9.68481C19.75 9.15832 19.75 8.89508 19.6821 8.65265C19.622 8.4379 19.5232 8.23592 19.3906 8.05663C19.2409 7.85423 19.0331 7.69262 18.6176 7.36938L12.4004 2.53385C12.0784 2.28337 11.9174 2.15813 11.7396 2.10998C11.5827 2.06751 11.4173 2.06751 11.2604 2.10998C11.0826 2.15813 10.9216 2.28337 10.5996 2.53385Z" stroke="#5925DC" stroke-width="1.5" stroke-linecap="round" stroke-linejoin="round"/>
</svg>
