<svg width="22" height="22" viewBox="0 0 22 22" fill="none" xmlns="http://www.w3.org/2000/svg">
<path d="M3.91674 19.0006L9.96356 12.9538C10.3266 12.5907 10.5081 12.4092 10.7174 12.3412C10.9015 12.2814 11.0998 12.2814 11.2839 12.3412C11.4932 12.4092 11.6747 12.5907 12.0377 12.9538L18.0442 18.9603M12.834 13.75L15.4636 11.1204C15.8266 10.7574 16.0081 10.5759 16.2174 10.5079C16.4015 10.4481 16.5998 10.4481 16.7839 10.5079C16.9932 10.5759 17.1747 10.7574 17.5377 11.1204L20.1673 13.75M9.16732 8.25C9.16732 9.26252 8.34651 10.0833 7.33398 10.0833C6.32146 10.0833 5.50065 9.26252 5.50065 8.25C5.50065 7.23748 6.32146 6.41667 7.33398 6.41667C8.34651 6.41667 9.16732 7.23748 9.16732 8.25ZM6.23398 19.25H15.7673C17.3075 19.25 18.0775 19.25 18.6658 18.9503C19.1832 18.6866 19.6039 18.2659 19.8676 17.7485C20.1673 17.1602 20.1673 16.3901 20.1673 14.85V7.15C20.1673 5.60986 20.1673 4.83978 19.8676 4.25153C19.6039 3.73408 19.1832 3.31338 18.6658 3.04973C18.0775 2.75 17.3075 2.75 15.7673 2.75H6.23398C4.69384 2.75 3.92377 2.75 3.33551 3.04973C2.81806 3.31338 2.39737 3.73408 2.13372 4.25153C1.83398 4.83978 1.83398 5.60986 1.83398 7.15V14.85C1.83398 16.3901 1.83398 17.1602 2.13372 17.7485C2.39737 18.2659 2.81806 18.6866 3.33551 18.9503C3.92377 19.25 4.69384 19.25 6.23398 19.25Z" stroke="#344054" stroke-width="1.5" stroke-linecap="round" stroke-linejoin="round"/>
</svg>
