<svg width="49" height="49" viewBox="0 0 49 49" fill="none" xmlns="http://www.w3.org/2000/svg">
<path d="M24.4998 0.5C13.4711 0.5 4.20585 7.96971 1.42627 18.1693C1.63549 18.4393 2.71145 19.0393 2.89078 19.1593C3.39887 19.4893 3.93686 19.8193 4.47484 20.1492C5.55081 20.7792 6.65666 21.3192 7.7924 21.7992C10.034 22.7291 12.3653 23.3591 14.7862 23.6591C15.4138 23.7791 16.0714 23.8091 16.699 23.8091C16.699 23.5691 16.6691 23.3291 16.6691 23.0891C16.6392 21.9192 16.699 20.7192 16.8186 19.5493C16.8783 19.0693 16.9082 18.6193 16.9979 18.1393C17.0278 18.0493 17.0278 17.9293 17.0577 17.8393V17.7493C17.8049 13.7295 19.897 10.1596 23.7825 8.41969C27.7874 6.64976 32.3603 7.36974 34.8709 11.1496C36.8734 14.5695 36.7837 18.8293 34.6318 22.1592C32.0016 26.269 27.369 28.2489 22.4973 28.9089C22.7962 31.6088 23.2146 34.2187 23.7825 37.0086C24.2905 39.3785 24.8584 41.7184 25.5458 44.0583C25.5757 44.1783 25.6056 44.2983 25.6654 44.4183C26.0539 45.7683 26.5023 47.1182 26.9506 48.4382C39.0552 47.2382 48.4998 36.9786 48.4998 24.5291C48.44 11.2696 37.7102 0.5 24.4998 0.5Z" fill="#4A43A7"/>
<path d="M29.5822 20.0064C30.3294 19.1665 30.8076 18.1165 30.957 17.0065C30.9869 16.7665 31.0168 16.5266 31.0168 16.3166C31.0467 15.5966 30.8674 14.9066 30.5386 14.2766C30.2397 13.7067 29.7914 13.2567 29.2235 13.0167C26.8325 11.8467 23.9931 14.3366 22.977 16.4066C22.977 16.4066 22.977 16.4366 22.9471 16.4366C21.5124 19.1665 21.901 23.5463 21.901 23.5463C23.9633 23.2463 25.9359 22.5263 27.759 21.4764C28.4166 21.0864 29.0442 20.6064 29.5822 20.0064Z" fill="#4A43A7"/>
<path d="M17.028 29.2965C15.2646 29.2365 13.5013 29.0265 11.7379 28.6965C7.73288 27.9166 3.93711 26.3566 0.5 24.1367V24.7067C0.5 36.8562 9.46638 46.8758 21.1227 48.4958C19.4788 43.366 18.2833 38.1162 17.5062 32.8064C17.3568 31.6964 17.1775 30.5265 17.028 29.2965Z" fill="#4A43A7"/>
</svg>
