<svg width="30" height="30" viewBox="0 0 30 30" fill="none" xmlns="http://www.w3.org/2000/svg">
<path d="M15.0002 0C8.10677 0 2.3155 4.66895 0.578125 11.0442C0.708895 11.213 1.38143 11.588 1.49352 11.663C1.8111 11.8693 2.14737 12.0755 2.48364 12.2818C3.15617 12.6755 3.84739 13.0131 4.55728 13.3131C5.95839 13.8944 7.41555 14.2881 8.92875 14.4756C9.32106 14.5506 9.73206 14.5694 10.1244 14.5694C10.1244 14.4194 10.1057 14.2694 10.1057 14.1194C10.087 13.3881 10.1244 12.638 10.1991 11.9068C10.2365 11.6068 10.2551 11.3255 10.3112 11.0255C10.3299 10.9692 10.3299 10.8942 10.3485 10.838V10.7817C10.8156 8.26911 12.1233 6.03776 14.5519 4.95021C17.0552 3.84391 19.9135 4.29394 21.4827 6.65654C22.7344 8.79413 22.6783 11.4567 21.3333 13.5381C19.6893 16.1069 16.7937 17.3445 13.7486 17.757C13.9354 19.4446 14.1969 21.0759 14.5519 22.8197C14.8695 24.3011 15.2244 25.7636 15.6541 27.2262C15.6728 27.3012 15.6915 27.3762 15.7288 27.4512C15.9717 28.295 16.2519 29.1388 16.5321 29.9638C24.0981 29.2138 30.0015 22.801 30.0015 15.0194C29.9641 6.73154 23.2575 0 15.0002 0Z" fill="white"/>
<path d="M18.1788 12.1931C18.6458 11.6681 18.9447 11.0118 19.0381 10.318C19.0568 10.168 19.0755 10.018 19.0755 9.88676C19.0942 9.43674 18.9821 9.00547 18.7766 8.6117C18.5898 8.25543 18.3096 7.97417 17.9546 7.82417C16.4601 7.09288 14.6853 8.6492 14.0502 9.94301C14.0502 9.94301 14.0502 9.96176 14.0315 9.96176C13.1348 11.6681 13.3776 14.4057 13.3776 14.4057C14.6667 14.2182 15.8996 13.7682 17.0392 13.1119C17.4502 12.8681 17.8425 12.5681 18.1788 12.1931Z" fill="white"/>
<path d="M10.3309 17.9986C9.22866 17.9611 8.12645 17.8298 7.02424 17.6236C4.52092 17.136 2.14837 16.161 0 14.7734V15.1297C0 22.7238 5.60445 28.9866 12.8902 29.9991C11.8627 26.7927 11.1155 23.5113 10.6298 20.1924C10.5364 19.4986 10.4243 18.7674 10.3309 17.9986Z" fill="white"/>
</svg>
