<svg width="25" height="25" viewBox="0 0 25 25" fill="none" xmlns="http://www.w3.org/2000/svg">
<path d="M12.4639 0C6.73608 0 1.92407 3.87947 0.480469 9.17674C0.589127 9.31697 1.14794 9.62857 1.24108 9.69089C1.50496 9.86228 1.78437 10.0337 2.06377 10.205C2.62259 10.5322 3.19692 10.8127 3.78678 11.0619C4.95098 11.5449 6.16174 11.8721 7.41908 12.0279C7.74505 12.0902 8.08655 12.1058 8.41252 12.1058C8.41252 11.9812 8.397 11.8565 8.397 11.7319C8.38148 11.1243 8.41252 10.5011 8.47461 9.89343C8.50566 9.64415 8.52118 9.41045 8.56775 9.16116C8.58327 9.11442 8.58327 9.0521 8.59879 9.00536V8.95862C8.98686 6.87087 10.0734 5.01683 12.0914 4.11317C14.1714 3.19394 16.5464 3.56787 17.8503 5.53097C18.8903 7.30712 18.8437 9.51951 17.7261 11.2489C16.3601 13.3834 13.9541 14.4117 11.4239 14.7545C11.5791 16.1567 11.7965 17.5122 12.0914 18.9611C12.3553 20.192 12.6502 21.4072 13.0072 22.6225C13.0227 22.6848 13.0383 22.7471 13.0693 22.8094C13.2711 23.5105 13.5039 24.2116 13.7368 24.8972C20.0234 24.274 24.9286 18.9455 24.9286 12.4797C24.8975 5.5933 19.3249 0 12.4639 0Z" fill="#635BFF"/>
<path d="M15.1041 10.1316C15.4921 9.6954 15.7405 9.15009 15.8181 8.57362C15.8336 8.44898 15.8492 8.32434 15.8492 8.21528C15.8647 7.84136 15.7715 7.48301 15.6008 7.15582C15.4456 6.8598 15.2127 6.6261 14.9178 6.50145C13.676 5.89383 12.2013 7.18698 11.6736 8.26202C11.6736 8.26202 11.6736 8.2776 11.658 8.2776C10.913 9.6954 11.1148 11.9701 11.1148 11.9701C12.1858 11.8143 13.2103 11.4404 14.1572 10.8951C14.4987 10.6925 14.8247 10.4432 15.1041 10.1316Z" fill="#635BFF"/>
<path d="M8.584 14.9552C7.66817 14.924 6.75234 14.815 5.8365 14.6436C3.75647 14.2385 1.7851 13.4283 0 12.2754V12.5714C0 18.8814 4.65678 24.0852 10.7106 24.9265C9.85686 22.2623 9.23595 19.5358 8.83237 16.7781C8.75475 16.2016 8.66162 15.594 8.584 14.9552Z" fill="#635BFF"/>
</svg>
