<svg width="25" height="24" viewBox="0 0 25 24" fill="none" xmlns="http://www.w3.org/2000/svg">
<path fill-rule="evenodd" clip-rule="evenodd" d="M6.50039 10.8008C7.13691 10.8008 7.74736 10.5479 8.19745 10.0978C8.64753 9.64775 8.90039 9.0373 8.90039 8.40078C8.90039 7.76426 8.64753 7.15381 8.19745 6.70372C7.74736 6.25364 7.13691 6.00078 6.50039 6.00078C5.86387 6.00078 5.25342 6.25364 4.80333 6.70372C4.35325 7.15381 4.10039 7.76426 4.10039 8.40078C4.10039 9.0373 4.35325 9.64775 4.80333 10.0978C5.25342 10.5479 5.86387 10.8008 6.50039 10.8008ZM6.50039 12.0008C6.97315 12.0008 7.44128 11.9077 7.87805 11.7267C8.31482 11.5458 8.71168 11.2807 9.04597 10.9464C9.38027 10.6121 9.64544 10.2152 9.82636 9.77844C10.0073 9.34167 10.1004 8.87354 10.1004 8.40078C10.1004 7.92802 10.0073 7.45989 9.82636 7.02312C9.64544 6.58635 9.38027 6.18949 9.04597 5.8552C8.71168 5.52091 8.31482 5.25573 7.87805 5.07482C7.44128 4.8939 6.97315 4.80078 6.50039 4.80078C5.54561 4.80078 4.62994 5.18007 3.95481 5.8552C3.27968 6.53033 2.90039 7.446 2.90039 8.40078C2.90039 9.35556 3.27968 10.2712 3.95481 10.9464C4.62994 11.6215 5.54561 12.0008 6.50039 12.0008Z" fill="#344054"/>
<path fill-rule="evenodd" clip-rule="evenodd" d="M5.12558 10.6769C5.18146 10.7326 5.22579 10.7988 5.25604 10.8717C5.28628 10.9446 5.30185 11.0228 5.30185 11.1017C5.30185 11.1806 5.28628 11.2588 5.25604 11.3317C5.22579 11.4046 5.18146 11.4708 5.12558 11.5265L4.71998 11.9309C3.93942 12.7117 3.50088 13.7705 3.50078 14.8745V17.1017C3.50078 17.2608 3.43757 17.4134 3.32505 17.526C3.21252 17.6385 3.05991 17.7017 2.90078 17.7017C2.74165 17.7017 2.58904 17.6385 2.47652 17.526C2.364 17.4134 2.30078 17.2608 2.30078 17.1017V14.8745C2.30095 13.4522 2.86596 12.0883 3.87158 11.0825L4.27598 10.6769C4.33172 10.621 4.39793 10.5767 4.47082 10.5464C4.54371 10.5162 4.62186 10.5006 4.70078 10.5006C4.7797 10.5006 4.85785 10.5162 4.93074 10.5464C5.00364 10.5767 5.06985 10.621 5.12558 10.6769ZM19.276 10.3169C19.2201 10.3726 19.1758 10.4388 19.1455 10.5117C19.1153 10.5846 19.0997 10.6628 19.0997 10.7417C19.0997 10.8206 19.1153 10.8988 19.1455 10.9717C19.1758 11.0446 19.2201 11.1108 19.276 11.1665L19.6816 11.5709C20.0681 11.9575 20.3748 12.4164 20.5839 12.9214C20.7931 13.4265 20.9008 13.9678 20.9008 14.5145V17.1017C20.9008 17.2608 20.964 17.4134 21.0765 17.526C21.189 17.6385 21.3417 17.7017 21.5008 17.7017C21.6599 17.7017 21.8125 17.6385 21.925 17.526C22.0376 17.4134 22.1008 17.2608 22.1008 17.1017V14.5145C22.1006 13.0922 21.5356 11.7283 20.53 10.7225L20.1256 10.3169C20.0698 10.261 20.0036 10.2167 19.9307 10.1864C19.8578 10.1562 19.7797 10.1406 19.7008 10.1406C19.6219 10.1406 19.5437 10.1562 19.4708 10.1864C19.3979 10.2167 19.3317 10.261 19.276 10.3169Z" fill="#344054"/>
<path fill-rule="evenodd" clip-rule="evenodd" d="M17.3012 10.8008C16.6647 10.8008 16.0542 10.5479 15.6041 10.0978C15.154 9.64775 14.9012 9.0373 14.9012 8.40078C14.9012 7.76426 15.154 7.15381 15.6041 6.70372C16.0542 6.25364 16.6647 6.00078 17.3012 6.00078C17.9377 6.00078 18.5481 6.25364 18.9982 6.70372C19.4483 7.15381 19.7012 7.76426 19.7012 8.40078C19.7012 9.0373 19.4483 9.64775 18.9982 10.0978C18.5481 10.5479 17.9377 10.8008 17.3012 10.8008ZM17.3012 12.0008C16.8284 12.0008 16.3603 11.9077 15.9235 11.7267C15.4867 11.5458 15.0899 11.2807 14.7556 10.9464C14.4213 10.6121 14.1561 10.2152 13.9752 9.77844C13.7943 9.34167 13.7012 8.87354 13.7012 8.40078C13.7012 7.92802 13.7943 7.45989 13.9752 7.02312C14.1561 6.58635 14.4213 6.18949 14.7556 5.8552C15.0899 5.52091 15.4867 5.25573 15.9235 5.07482C16.3603 4.8939 16.8284 4.80078 17.3012 4.80078C18.256 4.80078 19.1716 5.18007 19.8468 5.8552C20.5219 6.53033 20.9012 7.446 20.9012 8.40078C20.9012 9.35556 20.5219 10.2712 19.8468 10.9464C19.1716 11.6215 18.256 12.0008 17.3012 12.0008ZM11.9012 15.9008C11.1055 15.9008 10.3425 16.2169 9.77985 16.7795C9.21724 17.3421 8.90117 18.1051 8.90117 18.9008V20.4608C8.90117 20.6199 8.83796 20.7725 8.72544 20.885C8.61291 20.9976 8.4603 21.0608 8.30117 21.0608C8.14204 21.0608 7.98943 20.9976 7.87691 20.885C7.76439 20.7725 7.70117 20.6199 7.70117 20.4608V18.9008C7.70117 17.7869 8.14367 16.7186 8.93132 15.9309C9.71898 15.1433 10.7873 14.7008 11.9012 14.7008C13.0151 14.7008 14.0834 15.1433 14.871 15.9309C15.6587 16.7186 16.1012 17.7869 16.1012 18.9008V20.4608C16.1012 20.6199 16.038 20.7725 15.9254 20.885C15.8129 20.9976 15.6603 21.0608 15.5012 21.0608C15.342 21.0608 15.1894 20.9976 15.0769 20.885C14.9644 20.7725 14.9012 20.6199 14.9012 20.4608V18.9008C14.9012 18.5068 14.8236 18.1167 14.6728 17.7527C14.522 17.3888 14.3011 17.058 14.0225 16.7795C13.7439 16.5009 13.4132 16.2799 13.0492 16.1291C12.6852 15.9784 12.2951 15.9008 11.9012 15.9008Z" fill="#344054"/>
<path fill-rule="evenodd" clip-rule="evenodd" d="M11.9008 14.1016C12.5373 14.1016 13.1477 13.8487 13.5978 13.3986C14.0479 12.9485 14.3008 12.3381 14.3008 11.7016C14.3008 11.065 14.0479 10.4546 13.5978 10.0045C13.1477 9.55442 12.5373 9.30156 11.9008 9.30156C11.2643 9.30156 10.6538 9.55442 10.2037 10.0045C9.75364 10.4546 9.50078 11.065 9.50078 11.7016C9.50078 12.3381 9.75364 12.9485 10.2037 13.3986C10.6538 13.8487 11.2643 14.1016 11.9008 14.1016ZM11.9008 15.3016C12.8556 15.3016 13.7712 14.9223 14.4464 14.2471C15.1215 13.572 15.5008 12.6563 15.5008 11.7016C15.5008 10.7468 15.1215 9.83111 14.4464 9.15598C13.7712 8.48085 12.8556 8.10156 11.9008 8.10156C10.946 8.10156 10.0303 8.48085 9.3552 9.15598C8.68007 9.83111 8.30078 10.7468 8.30078 11.7016C8.30078 12.6563 8.68007 13.572 9.3552 14.2471C10.0303 14.9223 10.946 15.3016 11.9008 15.3016Z" fill="#344054"/>
</svg>
